<svg xmlns="http://www.w3.org/2000/svg" width="16" height="16" viewBox="0 0 16 16" fill="none"><path d="M8 1C4.134 1 1 4.134 1 8s3.134 7 7 7 7-3.134 7-7-3.134-7-7-7Zm4.886 4.2h-2.08a10.94 10.94 0 0 0-.965-2.494A5.617 5.617 0 0 1 12.886 5.2ZM8 2.414c.56.77.998 1.62 1.297 2.526H6.703A9.553 9.553 0 0 1 8 2.414ZM2.554 9.4a5.52 5.52 0 0 1 0-2.8h2.38A11.11 11.11 0 0 0 4.84 8c0 .474.037.943.094 1.4h-2.38Zm.56 1.4h2.08a10.94 10.94 0 0 0 .965 2.494A5.585 5.585 0 0 1 3.114 10.8Zm2.08-5.6h-2.08a5.585 5.585 0 0 1 3.045-2.494 10.94 10.94 0 0 0-.965 2.494ZM8 13.586a9.553 9.553 0 0 1-1.297-2.526h2.594A9.553 9.553 0 0 1 8 13.586Zm1.589-3.926H6.411A9.676 9.676 0 0 1 6.3 8c0-.477.043-.949.111-1.4h3.178c.069.451.111.923.111 1.4 0 .477-.043.949-.111 1.66Zm.252 3.634a10.94 10.94 0 0 0 .965-2.494h2.08a5.617 5.617 0 0 1-3.045 2.494Zm1.225-3.894A11.11 11.11 0 0 0 11.16 8a11.11 11.11 0 0 0-.094-1.4h2.38a5.52 5.52 0 0 1 0 2.8h-2.38Z" fill="#638ee0"/></svg>