<svg xmlns="http://www.w3.org/2000/svg" width="16" height="16" viewBox="0 0 16 16" fill="none"><path d="M2.667 6.333v3.334a.667.667 0 1 0 1.333 0V6.333a.667.667 0 1 0-1.333 0Zm2 5V12a1 1 0 0 0 1 1h.666v1.667a.667.667 0 1 0 1.334 0V13h.666v1.667a.667.667 0 1 0 1.334 0V13h.666a1 1 0 0 0 1-1v-5.667H4.667v5Zm7.333-5v3.334a.667.667 0 1 0 1.333 0V6.333a.667.667 0 1 0-1.333 0Zm-3.253-4.36 1.02-1.02a.335.335 0 1 0-.474-.473l-1.113 1.113a3.94 3.94 0 0 0-1.36 0L5.707.48a.335.335 0 0 0-.474.473l1.02 1.02A3.327 3.327 0 0 0 4.667 5h6.666A3.327 3.327 0 0 0 8.747 1.973ZM6.667 4H6v-.667h.667V4Zm2.666 0H8.667v-.667h.666V4Z" fill="#3ddc84"/></svg>