<svg xmlns="http://www.w3.org/2000/svg" width="16" height="16" viewBox="0 0 16 16" fill="none"><path d="M12.283 8.466c-.02-1.96 1.598-2.9 1.67-2.946-.908-1.329-2.322-1.511-2.826-1.533-1.204-.122-2.349.71-2.96.71-.611 0-1.557-.691-2.557-.673-.1.315-2.094.788-2.768 2.063-.574.994-.842 2.128-.84 3.298.038 1.37.44 2.77 1.2 3.927.618.968 1.363 2.056 2.337 2.016.938-.036 1.292-.607 2.426-.607 1.134 0 1.452.607 2.444.588.508-.008 1.447-.562 2.238-1.807.405-.66.72-1.392.933-2.162-2.052-.86-2.297-3.856-2.297-3.874Zm-2.157-6.35c.465-.609.783-1.434.697-2.116-.674.028-1.489.449-1.972 1.014-.433.502-.812 1.302-.71 2.071.752.058 1.519-.383 1.985-.97Z" fill="#555555"/></svg>