<svg width="24" height="24" viewBox="0 0 24 24" fill="none" xmlns="http://www.w3.org/2000/svg">
<path d="M5.94944 10.3084C5.84403 10.6448 6.09529 10.9868 6.44781 10.9868C6.62765 10.9868 6.79483 10.8943 6.89034 10.7419L9.23684 6.99792H11.9868C12.4018 6.99792 12.7368 6.66385 12.7368 6.25C12.7368 5.83615 12.4018 5.50208 11.9868 5.50208H9.23684L6.89034 1.75807C6.79483 1.60568 6.62765 1.51316 6.44781 1.51316C6.09529 1.51316 5.84403 1.85521 5.94944 2.19159L6.98684 5.50208H4.23684L3.61008 4.66871C3.53249 4.56554 3.4109 4.50485 3.28181 4.50485C3.00879 4.50485 2.81174 4.76627 2.88694 5.02873L3.23684 6.25L2.88694 7.47127C2.81174 7.73373 3.00879 7.99515 3.28181 7.99515C3.4109 7.99515 3.53249 7.93446 3.61008 7.83129L4.23684 6.99792H6.98684L5.94944 10.3084Z" fill="#063B9E"/>
<path d="M5.94944 21.3084C5.84403 21.6448 6.09529 21.9868 6.44781 21.9868C6.62765 21.9868 6.79483 21.8943 6.89034 21.7419L9.23684 17.9979H11.9868C12.4018 17.9979 12.7368 17.6638 12.7368 17.25C12.7368 16.8361 12.4018 16.5021 11.9868 16.5021H9.23684L6.89034 12.7581C6.79483 12.6057 6.62765 12.5132 6.44781 12.5132C6.09529 12.5132 5.84403 12.8552 5.94944 13.1916L6.98684 16.5021H4.23684L3.61008 15.6687C3.53249 15.5655 3.4109 15.5048 3.28181 15.5048C3.00879 15.5048 2.81174 15.7663 2.88694 16.0287L3.23684 17.25L2.88694 18.4713C2.81174 18.7337 3.00879 18.9952 3.28181 18.9952C3.4109 18.9952 3.53249 18.9345 3.61008 18.8313L4.23684 17.9979H6.98684L5.94944 21.3084Z" fill="#063B9E"/>
<path d="M15.904 17.1842C15.5368 17.1842 15.275 16.8279 15.3848 16.4775L16.4655 13.0291H13.6009L12.948 13.8972C12.8672 14.0046 12.7405 14.0679 12.606 14.0679C12.3217 14.0679 12.1164 13.7955 12.1947 13.5222L12.5592 12.25L12.1947 10.9778C12.1164 10.7045 12.3217 10.4321 12.606 10.4321C12.7405 10.4321 12.8672 10.4954 12.948 10.6028L13.6009 11.4709H16.4655L15.3848 8.02249C15.275 7.67209 15.5368 7.31579 15.904 7.31579C16.0913 7.31579 16.2655 7.41217 16.3649 7.5709L18.8092 11.4709H21.6738C22.1061 11.4709 22.455 11.8189 22.455 12.25C22.455 12.6811 22.1061 13.0291 21.6738 13.0291H18.8092L16.3649 16.9291C16.2655 17.0878 16.0913 17.1842 15.904 17.1842Z" fill="#063B9E"/>
</svg>
