<svg width="24" height="24" viewBox="0 0 24 24" fill="none" xmlns="http://www.w3.org/2000/svg">
<path fill-rule="evenodd" clip-rule="evenodd" d="M7.60163 18.4434L6.83422 18.117C6.82206 18.1119 6.80987 18.1071 6.79759 18.1027L6.79441 18.1016C6.78527 18.0984 6.78235 18.0974 6.77948 18.0965C6.77268 18.0943 6.76587 18.0922 6.75896 18.0902C6.75204 18.0881 6.74511 18.0863 6.73817 18.0845C6.73142 18.0827 6.72467 18.0811 6.71798 18.0797C6.71274 18.0785 6.70749 18.0774 6.70225 18.0763C6.69809 18.0755 6.69395 18.0748 6.68977 18.074C6.68673 18.0735 6.68365 18.073 6.68057 18.0725C6.67459 18.0715 6.66862 18.0706 6.66274 18.0698C6.65464 18.0688 6.64657 18.0678 6.63841 18.067C6.63366 18.0666 6.62888 18.0662 6.62415 18.0658C6.61691 18.0653 6.60969 18.0649 6.60249 18.0646C6.59663 18.0644 6.5908 18.0642 6.58493 18.0642C6.57936 18.0641 6.57379 18.0641 6.56826 18.0642C6.56486 18.0642 6.56149 18.0643 6.55813 18.0644C6.55451 18.0645 6.55092 18.0646 6.54717 18.0648C6.54007 18.0651 6.53302 18.0655 6.5261 18.0661C6.51894 18.0666 6.5118 18.0673 6.50456 18.0681C6.49332 18.0695 6.491 18.0698 6.48873 18.0701C6.48219 18.071 6.47566 18.072 6.46903 18.0731C6.37914 18.0881 6.29294 18.1218 6.21574 18.172C6.214 18.1731 6.21251 18.174 6.21094 18.1749C6.18979 18.1889 6.16931 18.204 6.14963 18.2204C6.14298 18.2259 6.13643 18.2315 6.13003 18.2374C6.1267 18.2404 6.1234 18.2435 6.12016 18.2466C6.11712 18.2494 6.1141 18.2523 6.1111 18.2552L6.11632 18.2499C6.10847 18.2573 6.10076 18.2649 6.09321 18.2728L6.08876 18.2777C4.91352 17.5089 4.21291 16.4218 3.98041 15.0033C4.35382 14.9818 4.80817 14.886 5.05377 14.6414C5.42749 14.2692 5.46708 13.3906 5.46708 12.7536C5.46708 12.1294 5.41466 11.3778 5.05377 11.0054C4.81849 10.7626 4.4072 10.6332 4.04343 10.5942C5.17689 6.59038 7.7862 4.61083 11.933 4.61083C16.0813 4.61083 18.7411 6.59279 19.9705 10.5992C19.5874 10.637 19.1688 10.7442 18.9478 11.0054C18.6352 11.3748 18.5329 12.22 18.5329 12.7948C18.5329 13.3708 18.6341 14.2719 18.9478 14.6414C19.2448 14.9913 19.9004 15.0082 20.3445 15.0082C20.7389 15.0082 21.3025 14.9245 21.5867 14.6414C21.9604 14.2692 22 13.3906 22 12.7536C22 12.1294 21.9476 11.3778 21.5867 11.0054C21.3514 10.7626 20.9403 10.6332 20.577 10.5942C19.296 6.21287 16.3944 4 11.933 4C7.46996 4 4.61702 6.2153 3.43839 10.5991C3.05507 10.6369 2.63602 10.7441 2.41485 11.0054C2.10224 11.3748 2 12.22 2 12.7948C2 13.3708 2.10113 14.2719 2.41485 14.6414C2.65556 14.9249 3.13175 14.9898 3.53981 15.0043C3.7827 16.6028 4.57003 17.836 5.8942 18.6895C5.89344 18.6951 5.89275 18.7008 5.89214 18.7065C5.89146 18.7125 5.89087 18.7186 5.89036 18.7245C5.88973 18.7318 5.88922 18.7391 5.88879 18.7465C5.88848 18.752 5.88824 18.7575 5.88804 18.763C5.88795 18.7655 5.88789 18.768 5.88781 18.7705C5.88775 18.7736 5.88769 18.7768 5.88765 18.78C5.88755 18.7878 5.88757 18.7957 5.88771 18.8036C5.88779 18.8078 5.88791 18.8119 5.88806 18.8161C5.88863 18.8301 5.88912 18.8382 5.88971 18.8462L5.89042 18.855C5.89128 18.8647 5.8923 18.8744 5.8935 18.8841L5.89428 18.89C5.89564 18.9002 5.89721 18.9104 5.89899 18.9205C5.89999 18.9262 5.90105 18.9319 5.90217 18.9375C5.90601 18.9568 5.91057 18.9759 5.91584 18.9946C5.9172 18.9995 5.91861 19.0044 5.92014 19.0094C5.9223 19.0165 5.92455 19.0236 5.92687 19.0306C5.92922 19.0375 5.93167 19.0445 5.93419 19.0514C5.93648 19.0576 5.93884 19.0638 5.94127 19.0699C5.94331 19.075 5.94539 19.0801 5.94758 19.0852C5.95008 19.0911 5.95267 19.097 5.95529 19.1028C5.95737 19.1074 5.95949 19.1119 5.96167 19.1164C5.96285 19.1189 5.96406 19.1214 5.96528 19.1239C5.96705 19.1275 5.96887 19.1311 5.97071 19.1346C5.9746 19.1423 5.97862 19.1498 5.98272 19.1571L5.98682 19.1644C5.99173 19.173 5.99683 19.1815 6.00208 19.1898C6.00457 19.1938 6.00711 19.1978 6.00971 19.2017C6.01395 19.2082 6.01831 19.2146 6.02278 19.221C6.02665 19.2265 6.03061 19.232 6.03461 19.2374C6.03745 19.2412 6.04032 19.245 6.04324 19.2488C6.04885 19.256 6.0546 19.2631 6.06047 19.2701L6.06849 19.2795C6.07163 19.2831 6.07481 19.2867 6.07804 19.2903C6.08664 19.2996 6.09127 19.3045 6.09601 19.3094C6.0988 19.3123 6.10163 19.3151 6.10447 19.3179C6.11083 19.3242 6.11734 19.3304 6.12401 19.3365L6.13078 19.3427C6.14663 19.3568 6.16317 19.3703 6.18025 19.3829C6.18743 19.3882 6.19473 19.3933 6.20219 19.3984C6.20595 19.401 6.20972 19.4035 6.21343 19.4059L6.21551 19.4072L6.24617 19.4259C6.2527 19.4296 6.25931 19.4333 6.26604 19.4368C6.2715 19.4397 6.27703 19.4426 6.2826 19.4453L6.31625 19.4607L7.08552 19.788C7.17063 19.8242 7.25857 19.8412 7.34501 19.8409L7.38195 19.8398C7.63977 19.8243 7.87864 19.6559 7.98199 19.3866C8.12416 19.0155 7.95387 18.5932 7.60163 18.4434ZM12.0491 5.25614L11.933 5.2556C8.48978 5.2556 6.23707 6.67027 5.03623 9.59339L5.03647 10.2192C5.18492 10.2963 5.31983 10.3894 5.43573 10.4991L5.48193 10.5448C5.94933 11.0271 6.07899 11.7231 6.07899 12.7536C6.07899 13.8995 5.96006 14.626 5.47411 15.11C5.34926 15.2344 5.20167 15.3343 5.03647 15.4129L5.03613 16.2656C5.28193 16.7224 5.61453 17.1184 6.03736 17.4586L6.10616 17.5126L6.12534 17.5047C6.18567 17.4812 6.24782 17.4624 6.31144 17.4483L6.37555 17.4359C6.38585 17.4342 6.38966 17.4336 6.39493 17.4328C6.39799 17.4324 6.40156 17.4319 6.40723 17.4311C6.41828 17.4296 6.4223 17.429 6.42819 17.4283C6.43158 17.4279 6.4356 17.4275 6.44188 17.4267L6.45306 17.4256L6.46819 17.4242L6.47919 17.4232C6.48949 17.4225 6.49479 17.4221 6.50012 17.4217C6.50577 17.4214 6.51142 17.4211 6.52308 17.4205C6.53151 17.4202 6.53151 17.4202 6.54048 17.4199C6.55768 17.4194 6.57499 17.4192 6.59319 17.4195C6.60108 17.4196 6.60504 17.4197 6.60897 17.4198C6.61295 17.4199 6.61693 17.42 6.62491 17.4203C6.64596 17.4212 6.64596 17.4212 6.66725 17.4227C6.67365 17.4232 6.67688 17.4234 6.68012 17.4237C6.68342 17.424 6.68671 17.4243 6.69336 17.4249C6.71669 17.4273 6.71669 17.4273 6.73997 17.4302C6.74825 17.4314 6.75243 17.4319 6.75659 17.4326C6.76081 17.4332 6.76501 17.4339 6.77348 17.4352C6.794 17.4386 6.79416 17.4386 6.81474 17.4426C6.82215 17.4441 6.82584 17.4448 6.82951 17.4456C6.8332 17.4464 6.83687 17.4472 6.84424 17.4488L6.85564 17.4514L6.87122 17.4551L6.8826 17.4579L6.89425 17.461L6.9102 17.4653L6.92189 17.4687C6.94125 17.4744 6.94125 17.4744 6.9604 17.4806C6.96709 17.4828 6.97062 17.4839 6.97413 17.4851C6.97798 17.4864 6.98186 17.4878 6.98997 17.4906L6.99458 17.4922C7.01767 17.5005 7.04056 17.5095 7.06326 17.5191L7.83067 17.8455C8.49629 18.1286 8.8181 18.9266 8.54928 19.6284C8.46239 19.8548 8.32293 20.0462 8.14815 20.1905L16.6448 20.1903C17.9255 20.1903 18.9636 19.0963 18.9636 17.7469L18.9634 15.4428C18.7853 15.3561 18.6316 15.2361 18.4917 15.0713C18.0889 14.5968 17.921 13.703 17.921 12.7948C17.921 11.9096 18.0896 11.0507 18.4911 10.5763C18.6224 10.4211 18.7812 10.3 18.9636 10.2068L18.9637 9.63537C17.7057 6.71878 15.4435 5.28792 12.0491 5.25614ZM11.9425 18.2644C10.725 18.2644 9.73809 17.8361 9.73809 17.3076C9.73809 17.0101 10.0509 17.092 10.5415 17.2203C10.9224 17.3199 11.4104 17.4476 11.9425 17.4476C12.4746 17.4476 12.9626 17.3199 13.3435 17.2203C13.8341 17.092 14.1469 17.0101 14.1469 17.3076C14.1469 17.8361 13.1599 18.2644 11.9425 18.2644ZM14.0341 10.4106L14.2569 10.3619C14.8329 10.2395 15.1517 10.3262 15.5544 10.6181L15.6242 10.6692L15.6943 10.7229C16.0264 11.0053 16.6415 12.0079 16.7181 12.3772C16.7914 12.7305 16.6982 12.9755 16.4683 13.112C16.265 13.2327 15.8021 13.1351 15.5274 12.9391L15.4771 12.9055C15.2681 12.7746 14.9659 12.6854 14.5991 12.644C14.2397 12.6034 13.7913 12.6793 13.3307 12.8514L13.2375 12.8846C12.8238 13.0254 12.2896 13.1236 11.9523 13.1276L11.9316 13.1277C11.5691 13.1233 10.9775 13.0096 10.5543 12.8514L10.4482 12.8134C10.0252 12.6683 9.61758 12.6065 9.28586 12.644C8.88855 12.6889 8.56688 12.7898 8.35755 12.9391L8.30721 12.9727C8.02925 13.1458 7.60803 13.2256 7.41668 13.112C7.18681 12.9755 7.09359 12.7305 7.16684 12.3772C7.24622 11.9942 7.90493 10.9301 8.22635 10.6945L8.33052 10.6181C8.73326 10.3262 9.05209 10.2395 9.62801 10.3619C9.87814 10.4151 10.0368 10.4524 10.1911 10.4937L10.4948 10.5793C10.5522 10.5955 10.6001 10.6087 10.6483 10.6215L10.8654 10.6757C11.1846 10.7526 11.5028 10.801 11.8202 10.8209L11.9381 10.8266L12.0842 10.8196C12.2914 10.8059 12.4991 10.78 12.7072 10.7419L12.8633 10.7111L13.0195 10.6757C13.1518 10.6439 13.2313 10.6236 13.3356 10.5946L13.5202 10.5421L13.7456 10.48C13.8324 10.4574 13.9236 10.4354 14.0341 10.4106Z" fill="#063B9E"/>
</svg>
