<svg width="24" height="24" viewBox="0 0 24 24" fill="none" xmlns="http://www.w3.org/2000/svg">
<path fill-rule="evenodd" clip-rule="evenodd" d="M15.1905 8.77641C15.144 8.93708 15.0886 9.00195 14.9557 8.99996C14.3567 8.98998 13.7585 8.99596 13.1595 8.99497C13.1093 8.99497 13.0591 8.98798 13 8.98499V6H16C15.9793 6.08184 15.9631 6.15369 15.9424 6.22355C15.6913 7.07384 15.4357 7.92213 15.1905 8.77641ZM11 9H10.6539C10.107 8.999 9.56089 9.003 9.01402 8.99301C8.95572 8.99201 8.86421 8.93307 8.84428 8.86913C8.56015 7.94306 8.28561 7.01199 8.00886 6.08192C8.00295 6.06194 8.00369 6.03796 8 6H11V9ZM17.7735 10.706C17.1881 10.7033 16.6018 10.706 16.0173 10.7042C15.9341 10.7042 15.8527 10.6962 15.7539 10.6908C15.7539 10.3116 15.742 9.95731 15.7584 9.6039C15.7676 9.4223 15.7978 9.23091 15.8655 9.06177C16.2048 8.20806 16.5524 7.35792 16.9128 6.51222C17.0665 6.15169 17.1415 5.78849 17.1287 5.39858C17.1122 4.92321 16.8625 4.67128 16.3667 4.67039C16.1682 4.6695 15.9688 4.67039 15.7776 4.67039C15.6203 4.12915 15.4447 4.00096 14.8858 4.00185C14.1221 4.00274 13.3574 4.00274 12.5945 4.00274H12.3393V3.31728C12.664 3.31728 12.9769 3.32173 13.2888 3.31639C13.544 3.31194 13.6876 3.17396 13.6958 2.93004C13.7022 2.74933 13.7022 2.56862 13.6958 2.38791C13.6885 2.14844 13.5504 2.00512 13.3107 2.00334C12.4326 1.99889 11.5536 1.99889 10.6755 2.00334C10.4358 2.00512 10.2977 2.15022 10.2895 2.38702C10.284 2.54013 10.2877 2.69325 10.2886 2.84636C10.2904 3.19977 10.4139 3.31639 10.7807 3.31728C11.0697 3.31817 11.3588 3.31728 11.6432 3.31728V4.00185H11.3944C10.6023 4.00185 9.81019 4.00096 9.01715 4.00363C8.92568 4.00363 8.83147 4.01075 8.74274 4.03122C8.40614 4.11045 8.27351 4.36149 8.20948 4.67039C8.08325 4.67039 7.96983 4.6695 7.85641 4.67039C7.74207 4.67039 7.62773 4.66683 7.5134 4.67128C7.17496 4.68463 6.89689 4.90897 6.87037 5.23033C6.83927 5.61757 6.84293 6.00214 7.00391 6.37691C7.36156 7.20836 7.67804 8.05851 8.05855 8.87928C8.33479 9.47393 8.17746 10.0766 8.23875 10.7033H7.97532C7.36064 10.7042 6.74688 10.6997 6.13312 10.7078C5.78737 10.7122 5.51113 10.9365 5.5029 11.2668C5.49375 11.6095 5.50199 11.9674 5.59071 12.2959C5.81573 13.1264 6.09105 13.9445 6.34442 14.7689C6.4679 15.1704 6.67737 15.3261 7.10636 15.327C7.69816 15.3279 8.28997 15.327 8.91745 15.327V15.5576C8.91745 17.4475 8.91745 19.3383 8.91745 21.2282C8.91745 21.7623 9.1635 21.9991 9.71781 21.9991C11.2316 21.9991 12.7454 21.9991 14.2593 22C14.8227 22 15.0697 21.7614 15.0697 21.2157C15.0688 19.3392 15.0688 17.4635 15.0697 15.587V15.3279C15.6825 15.3279 16.2661 15.3279 16.8506 15.3279C17.307 15.3288 17.5092 15.1846 17.6436 14.7537C17.8741 14.0104 18.0918 13.2626 18.3333 12.5229C18.4522 12.1606 18.5089 11.7974 18.4989 11.4172C18.487 10.9579 18.2446 10.7078 17.7735 10.706Z" fill="#063B9E"/>
</svg>
