<svg width="24" height="24" viewBox="0 0 24 24" fill="none" xmlns="http://www.w3.org/2000/svg">
<path d="M11 14V10L14 12.0001L11 14Z" fill="#063B9E"/>
<path fill-rule="evenodd" clip-rule="evenodd" d="M20 2H4C2.89 2 2 2.89 2 4V20C2 21.1 2.9 22 4 22H20C21.1 22 22 21.1 22 20V4C22 2.89 21.1 2 20 2ZM18.7074 8.56153C18.5464 7.94685 18.072 7.46282 17.4696 7.29855C16.3779 7 12 7 12 7C12 7 7.62206 7 6.5303 7.29855C5.9279 7.46282 5.45349 7.94685 5.29249 8.56153C5 9.67556 5 12 5 12C5 12 5 14.3244 5.29249 15.4385C5.45349 16.0531 5.9279 16.5372 6.5303 16.7015C7.62206 17 12 17 12 17C12 17 16.3779 17 17.4696 16.7015C18.072 16.5372 18.5464 16.0531 18.7074 15.4385C19 14.3244 19 12 19 12C19 12 19 9.67556 18.7074 8.56153Z" fill="#063B9E"/>
</svg>
