<svg width="24" height="24" viewBox="0 0 24 24" fill="none" xmlns="http://www.w3.org/2000/svg">
<path fill-rule="evenodd" clip-rule="evenodd" d="M1.57829 1.21994C1.57829 1.21994 5.29372 1.11322 5.79806 1.5777C6.3024 2.04217 13.5239 10.8859 15.4472 12.6068C17.3705 14.3277 20.3408 14.3579 20.3408 14.3579H24C24 14.3579 24 22.5864 24 22.6942C24 22.8021 23.7893 22.9373 20.3408 22.4787C18.6818 22.2581 13.6328 21.3579 7.31189 19.6203C4.87335 18.9499 0.0471094 17.3578 0.0144952 17.1917C-0.018119 17.0255 0.0144952 16.863 0.0144952 16.3226C0.0144952 15.7823 0.0144952 15.3861 0.0144952 15.3861L5.06162 15.0935L1.57829 1.21994ZM4.2 16.2324C4.2 16.2324 7.02546 16.1676 7.8339 16.2324C8.64233 16.2971 16.8 18.0443 16.8 18.0443C16.8 18.0443 16.2229 18.6 15.6898 18.6C15.1566 18.6 8.57525 18.4336 7.8339 18.244C7.09255 18.0544 4.2 16.2324 4.2 16.2324Z" fill="#063B9E"/>
</svg>
