<svg width="24" height="24" viewBox="0 0 24 24" fill="none" xmlns="http://www.w3.org/2000/svg">
<path d="M14.3729 12.674L15.1685 12.7436C15.3848 12.7625 15.6006 12.7283 15.7925 12.6445L15.9768 12.5641L15.9973 12.3293C16.1841 12.3201 16.3519 12.287 16.4878 12.2322L19.0811 12.4591C19.0894 12.4598 19.9019 12.5269 20.4236 12.2149C20.7367 12.0283 20.8311 11.8 20.8555 11.6412C20.9083 11.2948 20.6742 11.0188 20.6362 10.9763C20.5732 10.8995 20.4336 10.7469 20.0942 10.3785C19.0984 9.2976 18.095 9.12885 17.7723 9.10063L8.03801 8.24898C7.89633 8.23261 7.77183 8.18588 7.72752 8.1319C7.55793 7.92794 5.38363 5.38262 5.29103 5.27432L5.19319 5.15958L3.36917 5L4.5209 8.07764L3.77775 8.04813L3.67436 9.2299L7.36416 10.9648C7.40899 10.988 8.49173 11.5327 11.4307 11.7898L11.6607 11.8099C11.855 11.9304 12.1337 12.0129 12.4498 12.0405L12.8582 12.0763L12.8472 12.2017L13.0768 12.3014C13.5038 12.4864 14.0608 12.6466 14.3729 12.674Z" fill="#063B9E"/>
<path d="M18.2057 13.2602C18.1696 13.6729 17.8058 13.9781 17.3932 13.942C16.9806 13.9059 16.6753 13.5421 16.7114 13.1295C16.7475 12.7169 17.1113 12.4116 17.5239 12.4477C17.9366 12.4838 18.2418 12.8476 18.2057 13.2602Z" fill="#063B9E"/>
<path d="M9.92173 13.2883C10.3344 13.3244 10.6981 13.0192 10.7342 12.6066C10.7703 12.1939 10.4651 11.8302 10.0525 11.7941C9.63983 11.758 9.27605 12.0632 9.23995 12.4758C9.20385 12.8885 9.5091 13.2522 9.92173 13.2883Z" fill="#063B9E"/>
<path d="M8.74186 12.4323C8.70575 12.8449 8.34198 13.1501 7.92934 13.114C7.51671 13.0779 7.21146 12.7142 7.24756 12.3015C7.28366 11.8889 7.64744 11.5836 8.06008 11.6197C8.47271 11.6558 8.77796 12.0196 8.74186 12.4323Z" fill="#063B9E"/>
<path d="M21.5 17.2698C21.7761 17.2698 22 17.4936 22 17.7698C22 18.0459 21.7761 18.2698 21.5 18.2698H2.5C2.22386 18.2698 2 18.0459 2 17.7698C2 17.4936 2.22386 17.2698 2.5 17.2698H21.5Z" fill="#063B9E"/>
</svg>
