<svg width="24" height="24" viewBox="0 0 24 24" fill="none" xmlns="http://www.w3.org/2000/svg">
<path fill-rule="evenodd" clip-rule="evenodd" d="M2.52109 3.75642C2.24034 3.83663 2.08777 4.13934 2.19029 4.41274L3.16113 7.00164C3.37523 7.57258 3.31718 8.21001 3.00345 8.73288L2.07125 10.2865C2.02463 10.3643 2 10.4532 2 10.5438V12H10V11.4053C10 11.1292 10.2239 10.9053 10.5 10.9053H11.5V7.09416C11.5 6.96996 11.4711 6.84747 11.4155 6.73639L9.18558 2.27646C9.07797 2.06125 8.83235 1.9532 8.601 2.0193L2.52109 3.75642ZM2 13H10V13.4053C10 13.6814 10.2239 13.9053 10.5 13.9053H11.5V15.9053H10.5C10.2239 15.9053 10 16.1292 10 16.4053V16.9053H2V13ZM10 17.9053H2V21.4053C2 21.6814 2.22386 21.9053 2.5 21.9053H11C11.2761 21.9053 11.5 21.6814 11.5 21.4053V18.9053H10.5C10.2239 18.9053 10 18.6814 10 18.4053V17.9053ZM12.5 18.9053V21.4053C12.5 21.6814 12.7239 21.9053 13 21.9053H21.5C21.7761 21.9053 22 21.6814 22 21.4053V17.9053H14V18.4053C14 18.6814 13.7761 18.9053 13.5 18.9053H12.5ZM14 16.9053H22V12.9053H14V13.4053C14 13.6814 13.7761 13.9053 13.5 13.9053H12.5V15.9053H13.5C13.7761 15.9053 14 16.1292 14 16.4053V16.9053ZM22 11.9053H14V11.4053C14 11.1292 13.7761 10.9053 13.5 10.9053H12.5V7.09416C12.5 6.96996 12.5289 6.84747 12.5845 6.73639L14.8144 2.27646C14.922 2.06125 15.1676 1.9532 15.399 2.0193L21.4789 3.75642C21.7597 3.83663 21.9122 4.13934 21.8097 4.41274L20.8389 7.00164C20.6248 7.57258 20.6828 8.21001 20.9965 8.73288L21.9287 10.2865C21.9754 10.3643 22 10.4532 22 10.5438V11.9053ZM11 12.1C11 12.0448 11.0448 12 11.1 12H12.9C12.9552 12 13 12.0448 13 12.1V12.9C13 12.9552 12.9552 13 12.9 13H11.1C11.0448 13 11 12.9552 11 12.9V12.1ZM11.1 17C11.0448 17 11 17.0448 11 17.1V17.9C11 17.9552 11.0448 18 11.1 18H12.9C12.9552 18 13 17.9552 13 17.9V17.1C13 17.0448 12.9552 17 12.9 17H11.1Z" fill="#063B9E"/>
</svg>
