<svg width="24" height="24" viewBox="0 0 24 24" fill="none" xmlns="http://www.w3.org/2000/svg">
<path fill-rule="evenodd" clip-rule="evenodd" d="M0 17.8726H12.1295L24 6H0V17.8726ZM14.2429 8.37451H11.8726L11.8805 13.9493L9.81651 8.3724H7.76994L6.00805 13.0299C5.82073 11.8447 4.59548 11.4358 3.63143 11.1295C2.99479 10.925 2.31911 10.6242 2.32597 10.2918C2.33125 10.019 2.68743 9.76598 3.3953 9.80371C3.8702 9.8293 4.2897 9.86756 5.12421 10.2707L5.94473 8.84071C5.18383 8.4534 4.13166 8.20883 3.26892 8.20803H3.26364C2.25764 8.20803 1.41996 8.53387 0.900737 9.07077C0.538756 9.44542 0.343518 9.9219 0.335603 10.4488C0.322411 11.1738 0.588093 11.6878 1.14637 12.0985C1.6181 12.4442 2.22149 12.6684 2.75312 12.8331C3.40875 13.0362 3.94434 13.213 3.93774 13.5892C3.93246 13.7264 3.88075 13.8546 3.78208 13.9581C3.6185 14.1269 3.36786 14.1902 3.02091 14.1971C2.35157 14.2113 1.85556 14.1061 1.06511 13.6388L0.335076 15.0873C1.12473 15.5363 1.96294 15.7616 2.91538 15.7616L3.12961 15.76C3.95858 15.745 4.63136 15.5463 5.16589 15.1163C5.1965 15.0917 5.22393 15.0669 5.25243 15.0419L5.16273 15.5041L7.16259 15.4978L7.52141 14.5791C7.89869 14.7079 8.32769 14.7791 8.78307 14.7791C9.22684 14.7791 9.64422 14.7116 10.0144 14.5902L10.2645 15.4978L13.8527 15.5012L13.8614 13.4069H14.6249C16.4704 13.4069 17.5614 12.4676 17.5614 10.8926C17.5608 9.13832 16.5002 8.37451 14.2429 8.37451ZM8.78306 13.1399C8.50735 13.1399 8.2488 13.0919 8.02638 13.0075L8.77462 10.6448H8.78913L9.52523 13.014C9.30361 13.0932 9.05138 13.1399 8.78306 13.1399ZM14.3816 11.7825H13.8608V9.87837H14.3819C15.0758 9.87837 15.6298 10.1095 15.6298 10.8182C15.6292 11.5516 15.0755 11.7825 14.3816 11.7825Z" fill="#063B9E"/>
</svg>
