<svg width="24" height="24" viewBox="0 0 24 24" fill="none" xmlns="http://www.w3.org/2000/svg">
<path fill-rule="evenodd" clip-rule="evenodd" d="M5.89913 1.10909L3.03534 3.97287L8.85382 9.79135L9.33112 9.31405L10.544 10.5251L7.687 13.3368C6.99579 12.9488 6.20429 12.714 5.36025 12.6794L5.14286 12.675C2.30254 12.675 0 14.9416 0 17.7375C0 20.5334 2.30254 22.8 5.14286 22.8C7.98318 22.8 10.2857 20.5334 10.2857 17.7375C10.2857 16.3433 9.71317 15.0807 8.78691 14.1652L11.506 11.4881L14.731 14.7151C14.1327 15.5053 13.7632 16.473 13.7188 17.5235L13.7143 17.7375C13.7143 20.5334 16.0168 22.8 18.8571 22.8C21.6975 22.8 24 20.5334 24 17.7375C24 14.9416 21.6975 12.675 18.8571 12.675C18.1614 12.675 17.498 12.811 16.8928 13.0574L11.2403 7.40486L11.7176 6.92756L5.89913 1.10909ZM21 17.7C21 18.8598 20.0598 19.8 18.9 19.8C17.7402 19.8 16.8 18.8598 16.8 17.7C16.8 16.5402 17.7402 15.6 18.9 15.6C20.0598 15.6 21 16.5402 21 17.7ZM5.1 19.8C6.2598 19.8 7.2 18.8598 7.2 17.7C7.2 16.5402 6.2598 15.6 5.1 15.6C3.9402 15.6 3 16.5402 3 17.7C3 18.8598 3.9402 19.8 5.1 19.8Z" fill="#063B9E"/>
</svg>
