<svg width="24" height="24" viewBox="0 0 24 24" fill="none" xmlns="http://www.w3.org/2000/svg">
<path d="M2.5 8C2.22386 8 2 8.22386 2 8.5V15.5C2 15.7761 2.22386 16 2.5 16C2.77614 16 3 15.7761 3 15.5V8.5C3 8.22386 2.77614 8 2.5 8Z" fill="#063B9E"/>
<path d="M15.6307 15H16.4293C16.6464 15 16.8585 14.9471 17.0423 14.847L17.2189 14.7508V14.5151C17.4042 14.4897 17.5684 14.4421 17.6991 14.3756H20.3022C20.3106 14.3756 21.1258 14.3717 21.6183 14.0153C21.9139 13.8021 21.9881 13.5665 21.9986 13.4062C22.0211 13.0565 21.7638 12.8019 21.7222 12.7629C21.6527 12.6919 21.5003 12.5521 21.1302 12.2146C20.0439 11.2246 19.0296 11.144 18.7057 11.144H8.93424C8.79167 11.14 8.66357 11.1043 8.61472 11.0544C8.42801 10.866 6.04013 8.51988 5.93845 8.42006L5.83098 8.31429H4L5.41557 11.2798L4.67269 11.3152V12.5015L8.49965 13.9082C8.54633 13.9274 9.67242 14.3756 12.6226 14.3756H12.8535C13.0576 14.4787 13.3423 14.5366 13.6597 14.5366H14.0697V14.6625L14.307 14.7419C14.7485 14.8889 15.3173 15 15.6307 15Z" fill="#063B9E"/>
<path d="M19.5 15.25C19.5 15.6642 19.1642 16 18.75 16C18.3358 16 18 15.6642 18 15.25C18 14.8358 18.3358 14.5 18.75 14.5C19.1642 14.5 19.5 14.8358 19.5 15.25Z" fill="#063B9E"/>
<path d="M11.25 16C11.6642 16 12 15.6642 12 15.25C12 14.8358 11.6642 14.5 11.25 14.5C10.8358 14.5 10.5 14.8358 10.5 15.25C10.5 15.6642 10.8358 16 11.25 16Z" fill="#063B9E"/>
<path d="M10 15.25C10 15.6642 9.66421 16 9.25 16C8.83579 16 8.5 15.6642 8.5 15.25C8.5 14.8358 8.83579 14.5 9.25 14.5C9.66421 14.5 10 14.8358 10 15.25Z" fill="#063B9E"/>
</svg>
