<svg width="24" height="24" viewBox="0 0 24 24" fill="none" xmlns="http://www.w3.org/2000/svg">
<path fill-rule="evenodd" clip-rule="evenodd" d="M20 2H4C2.89 2 2 2.89 2 4V20C2 21.1 2.9 22 4 22H20C21.1 22 22 21.1 22 20V4C22 2.89 21.1 2 20 2ZM9.82224 8.35958C10.7784 8.38264 11.7087 8.68394 12.5056 9.22863L13.3739 7.15705C12.3254 6.41398 11.0851 6.01102 9.81242 6C6.86905 6 5.39736 7.51579 5.39736 9.37516C5.39736 11.599 7.158 12.3775 8.59053 13.0109C9.57298 13.4453 10.4011 13.8115 10.4011 14.5288C10.4011 15.1251 9.86639 15.5394 8.73319 15.5394C7.69398 15.5326 6.67938 15.213 5.81433 14.6198L5 16.944C6.13251 17.6238 7.41753 17.9878 8.72828 18C11.446 18 13.3592 16.8328 13.3592 14.5339C13.3592 12.4509 11.6134 11.6315 10.1782 10.9578C9.17646 10.4876 8.32602 10.0884 8.32602 9.38021C8.33092 8.81937 8.68413 8.35958 9.82224 8.35958ZM16.5683 17.9137C17.7126 17.9137 18.6403 16.9667 18.6403 15.7986C18.6403 14.6304 17.7126 13.6835 16.5683 13.6835C15.424 13.6835 14.4964 14.6304 14.4964 15.7986C14.4964 16.9667 15.424 17.9137 16.5683 17.9137Z" fill="#063B9E"/>
</svg>
