<svg width="24" height="24" viewBox="0 0 24 24" fill="none" xmlns="http://www.w3.org/2000/svg">
<path fill-rule="evenodd" clip-rule="evenodd" d="M14.923 15.5H15.8104C16.0516 15.5 16.2872 15.4407 16.4914 15.3283L16.6877 15.2204V14.956C16.8935 14.9275 17.076 14.8741 17.2212 14.7996H20.1136C20.1229 14.7996 21.0287 14.7951 21.5759 14.3954C21.9044 14.1563 21.9868 13.8919 21.9985 13.712C22.0234 13.3197 21.7375 13.0342 21.6913 12.9905C21.6141 12.9108 21.4448 12.7539 21.0335 12.3753C19.8265 11.2648 18.6996 11.1743 18.3397 11.1743H7.48249C7.32408 11.1699 7.18175 11.1299 7.12747 11.0739C6.92001 10.8625 4.26681 8.23063 4.15384 8.11865L4.03442 8H2L3.57286 11.3267L2.74743 11.3664V12.6972L6.99962 14.2753C7.05148 14.2968 8.30269 14.7996 11.5807 14.7996H11.8372C12.064 14.9153 12.3804 14.9802 12.733 14.9802H13.1885V15.1214L13.4523 15.2104C13.9428 15.3754 14.5748 15.5 14.923 15.5Z" fill="#063B9E"/>
</svg>
