<svg width="24" height="24" viewBox="0 0 24 24" fill="none" xmlns="http://www.w3.org/2000/svg">
<path d="M1.57829 1.21994C1.57829 1.21994 5.29372 1.11322 5.79806 1.5777C5.96359 1.73014 6.85268 2.78519 8.04055 4.19478C10.472 7.08002 14.1551 11.4507 15.4472 12.6068C17.3705 14.3277 20.3408 14.3579 20.3408 14.3579H24V22.6942C24 22.8021 23.7894 22.9373 20.3423 22.4789C20.38 22.3255 20.4 22.1651 20.4 22V17.6C20.4 16.4954 19.5046 15.6 18.4 15.6H10.4C9.29543 15.6 8.4 16.4954 8.4 17.6V19.9146C8.04186 19.8193 7.67902 19.7212 7.31189 19.6203C4.87335 18.9499 0.0471094 17.3578 0.0144952 17.1917C-0.00467804 17.094 -0.00130815 16.9976 0.00472589 16.8249C0.00895592 16.7038 0.0144952 16.5453 0.0144952 16.3226V15.3861L5.06162 15.0935L1.57829 1.21994Z" fill="#063B9E"/>
<path d="M10.2 20.3807C13.6916 21.2599 16.6144 21.8513 18.5218 22.1883C18.5722 22.0689 18.6 21.9377 18.6 21.8V18.4C18.6 17.8477 18.1523 17.4 17.6 17.4H11.2C10.6477 17.4 10.2 17.8477 10.2 18.4V20.3807Z" fill="#063B9E"/>
</svg>
