<svg width="24" height="24" viewBox="0 0 24 24" fill="none" xmlns="http://www.w3.org/2000/svg">
<path fill-rule="evenodd" clip-rule="evenodd" d="M20 2H8C6.9 2 6 2.9 6 4V16C6 17.1 6.9 18 8 18H20C21.1 18 22 17.1 22 16V4C22 2.9 21.1 2 20 2ZM10.0469 11.5078C10.0469 11.276 9.98763 11.1009 9.86914 10.9824C9.75065 10.8639 9.53516 10.7409 9.22266 10.6133C8.65234 10.3971 8.24219 10.1439 7.99219 9.85352C7.74219 9.56315 7.61719 9.22005 7.61719 8.82422C7.61719 8.34505 7.78711 7.96029 8.12695 7.66992C8.4668 7.37956 8.89843 7.23438 9.42188 7.23438C9.77083 7.23438 10.082 7.30794 10.3555 7.45508C10.6289 7.60221 10.8392 7.80989 10.9863 8.07812C11.1335 8.34636 11.207 8.65104 11.207 8.99219H10.0625C10.0625 8.72656 10.0059 8.52409 9.89258 8.38477C9.7793 8.24544 9.61589 8.17578 9.40234 8.17578C9.20182 8.17578 9.04557 8.23503 8.93359 8.35352C8.82161 8.47201 8.76562 8.63151 8.76562 8.83203C8.76562 8.98828 8.82812 9.12956 8.95312 9.25586C9.07813 9.38216 9.29948 9.51302 9.61719 9.64844C10.1719 9.84896 10.5749 10.0951 10.8262 10.3867C11.0775 10.6784 11.2031 11.0495 11.2031 11.5C11.2031 11.9948 11.0456 12.3815 10.7305 12.6602C10.4154 12.9388 9.98698 13.0781 9.44531 13.0781C9.07812 13.0781 8.74349 13.0026 8.44141 12.8516C8.13932 12.7005 7.903 12.4844 7.73242 12.2031C7.56185 11.9219 7.47656 11.5898 7.47656 11.207H8.62891C8.62891 11.5352 8.69271 11.7734 8.82031 11.9219C8.94792 12.0703 9.15625 12.1445 9.44531 12.1445C9.84636 12.1445 10.0469 11.9323 10.0469 11.5078ZM14.7734 7.3125L13.8164 11.4375L12.8633 7.3125H11.5898L13.2188 13H14.4141L16.0547 7.3125H14.7734ZM20.457 12.3555C20.2357 12.5951 19.9642 12.7754 19.6426 12.8965C19.321 13.0176 18.9688 13.0781 18.5859 13.0781C17.9323 13.0781 17.4245 12.8757 17.0625 12.4707C16.7005 12.0658 16.5143 11.4766 16.5039 10.7031V9.67969C16.5039 8.89583 16.6751 8.29232 17.0176 7.86914C17.36 7.44596 17.8594 7.23438 18.5156 7.23438C19.1328 7.23438 19.5983 7.38672 19.9121 7.69141C20.2259 7.9961 20.4076 8.47396 20.457 9.125H19.3398C19.3086 8.76302 19.2331 8.51628 19.1133 8.38477C18.9935 8.25325 18.806 8.1875 18.5508 8.1875C18.2409 8.1875 18.0156 8.30078 17.875 8.52734C17.7344 8.75391 17.6615 9.11458 17.6562 9.60938V10.6406C17.6562 11.1589 17.7337 11.5358 17.8887 11.7715C18.0436 12.0072 18.2982 12.125 18.6523 12.125C18.8789 12.125 19.0625 12.0794 19.2031 11.9883L19.3047 11.918V10.875H18.5V10.0078H20.457V12.3555Z" fill="#063B9E"/>
<path d="M3 6C3.55228 6 4 6.44772 4 7V20H17C17.5523 20 18 20.4477 18 21C18 21.5523 17.5523 22 17 22H4C2.9 22 2 21.1 2 20V7C2 6.44772 2.44772 6 3 6Z" fill="#063B9E"/>
</svg>
