<svg width="24" height="24" viewBox="0 0 24 24" fill="none" xmlns="http://www.w3.org/2000/svg">
<path fill-rule="evenodd" clip-rule="evenodd" d="M20 2H8C6.9 2 6 2.9 6 4V16C6 17.1 6.9 18 8 18H20C21.1 18 22 17.1 22 16V4C22 2.9 21.1 2 20 2ZM18.8574 10.748C18.9759 10.8665 19.0352 11.0417 19.0352 11.2734C19.0352 11.6979 18.8346 11.9102 18.4336 11.9102C18.1445 11.9102 17.9362 11.8359 17.8086 11.6875C17.681 11.5391 17.6172 11.3008 17.6172 10.9727H16.4648C16.4648 11.3555 16.5501 11.6875 16.7207 11.9688C16.8913 12.25 17.1276 12.4661 17.4297 12.6172C17.7318 12.7682 18.0664 12.8438 18.4336 12.8438C18.9753 12.8438 19.4036 12.7044 19.7188 12.4258C20.0339 12.1471 20.1914 11.7604 20.1914 11.2656C20.1914 10.8151 20.0658 10.444 19.8145 10.1523C19.5631 9.86068 19.1602 9.61458 18.6055 9.41406C18.2878 9.27865 18.0664 9.14779 17.9414 9.02148C17.8164 8.89518 17.7539 8.75391 17.7539 8.59766C17.7539 8.39713 17.8099 8.23763 17.9219 8.11914C18.0339 8.00065 18.1901 7.94141 18.3906 7.94141C18.6042 7.94141 18.7676 8.01107 18.8809 8.15039C18.9941 8.28971 19.0508 8.49219 19.0508 8.75781H20.1953C20.1953 8.41667 20.1217 8.11198 19.9746 7.84375C19.8275 7.57552 19.6172 7.36784 19.3438 7.2207C19.0703 7.07357 18.7591 7 18.4102 7C17.8867 7 17.4551 7.14518 17.1152 7.43555C16.7754 7.72591 16.6055 8.11067 16.6055 8.58984C16.6055 8.98568 16.7305 9.32877 16.9805 9.61914C17.2305 9.90951 17.6406 10.1628 18.2109 10.3789C18.5234 10.5065 18.7389 10.6296 18.8574 10.748ZM10.1094 9.03125L10.875 7.07812H12.1914L10.8555 9.89844L12.2227 12.7656H10.8906L10.1094 10.7773L9.33203 12.7656H8L9.36719 9.89844L8.02734 7.07812H9.34375L10.1094 9.03125ZM13.9531 11.8125H15.9688V12.7656H12.8047V7.07812H13.9531V11.8125Z" fill="#063B9E"/>
<path d="M3 6C3.55228 6 4 6.44772 4 7V20H17C17.5523 20 18 20.4477 18 21C18 21.5523 17.5523 22 17 22H4C2.9 22 2 21.1 2 20V7C2 6.44772 2.44772 6 3 6Z" fill="#063B9E"/>
</svg>
