<svg width="24" height="24" viewBox="0 0 24 24" fill="none" xmlns="http://www.w3.org/2000/svg">
<path d="M21.5 8C21.2239 8 21 8.22386 21 8.5V15.5C21 15.7761 21.2239 16 21.5 16C21.7761 16 22 15.7761 22 15.5V8.5C22 8.22386 21.7761 8 21.5 8Z" fill="#063B9E"/>
<path d="M13.6307 15H14.4293C14.6464 15 14.8585 14.9471 15.0423 14.847L15.2189 14.7508V14.5151C15.4042 14.4897 15.5684 14.4421 15.6991 14.3756H18.3022C18.3106 14.3756 19.1258 14.3717 19.6183 14.0153C19.9139 13.8021 19.9881 13.5665 19.9986 13.4062C20.0211 13.0565 19.7638 12.8019 19.7222 12.7629C19.6527 12.6919 19.5003 12.5521 19.1302 12.2146C18.0439 11.2246 17.0296 11.144 16.7057 11.144H6.93424C6.79167 11.14 6.66357 11.1043 6.61472 11.0544C6.42801 10.866 4.04013 8.51988 3.93845 8.42006L3.83098 8.31429H2L3.41557 11.2798L2.67269 11.3152V12.5015L6.49965 13.9082C6.54633 13.9274 7.67242 14.3756 10.6226 14.3756H10.8535C11.0576 14.4787 11.3423 14.5366 11.6597 14.5366H12.0697V14.6625L12.307 14.7419C12.7485 14.8889 13.3173 15 13.6307 15Z" fill="#063B9E"/>
<path d="M17.5 15.25C17.5 15.6642 17.1642 16 16.75 16C16.3358 16 16 15.6642 16 15.25C16 14.8358 16.3358 14.5 16.75 14.5C17.1642 14.5 17.5 14.8358 17.5 15.25Z" fill="#063B9E"/>
<path d="M9.25 16C9.66421 16 10 15.6642 10 15.25C10 14.8358 9.66421 14.5 9.25 14.5C8.83579 14.5 8.5 14.8358 8.5 15.25C8.5 15.6642 8.83579 16 9.25 16Z" fill="#063B9E"/>
<path d="M8 15.25C8 15.6642 7.66421 16 7.25 16C6.83579 16 6.5 15.6642 6.5 15.25C6.5 14.8358 6.83579 14.5 7.25 14.5C7.66421 14.5 8 14.8358 8 15.25Z" fill="#063B9E"/>
</svg>
