<svg width="24" height="24" viewBox="0 0 24 24" fill="none" xmlns="http://www.w3.org/2000/svg">
<path fill-rule="evenodd" clip-rule="evenodd" d="M7.99864 16.9067L7.20317 16.8119L7.2 6.56772L7.99547 6.47299C10.5728 6.17202 17.0277 6.00562 17.0277 6.00562H20.3983V7.80867H20.4V9.60514H20.3983V17.4056L16.0168 17.374C13.3372 17.3731 10.66 17.217 7.99864 16.9067ZM22.2 17.4056V6.00562H22.198V6L22.7981 6.00562C23.4982 6.00562 24 6.57115 24 7.26878V16.1109C24 16.8085 23.4982 17.4056 22.7981 17.4056L22.2 17.4056ZM0 14.5856V8.79404L5.4 8.27299V15.1067L0 14.5856ZM19.2 13.8H14.4V15.6H19.2V13.8ZM14.4 10.2H19.2V12H14.4V10.2Z" fill="#063B9E"/>
</svg>
