<svg width="24" height="24" viewBox="0 0 24 24" fill="none" xmlns="http://www.w3.org/2000/svg">
<path fill-rule="evenodd" clip-rule="evenodd" d="M4 2H20C21.1 2 22 2.89 22 4V20C22 21.1 21.1 22 20 22H4C2.9 22 2 21.1 2 20V4C2 2.89 2.89 2 4 2ZM12.1224 13.2V11.1429H17.9038C17.9563 11.4429 18 11.7429 18 12.1371C18 15.5657 15.656 18 12.1224 18C8.73761 18 6 15.3171 6 12C6 8.68286 8.73761 6 12.1224 6C13.7755 6 15.1574 6.59143 16.2245 7.56857L14.5627 9.13714C14.1079 8.70857 13.312 8.21143 12.1224 8.21143C10.0321 8.21143 8.32653 9.90857 8.32653 12C8.32653 14.0914 10.0321 15.7886 12.1224 15.7886C14.5452 15.7886 15.4548 14.0829 15.5948 13.2H12.1224Z" fill="#063B9E"/>
</svg>
