<svg width="24" height="24" viewBox="0 0 24 24" fill="none" xmlns="http://www.w3.org/2000/svg">
<path fill-rule="evenodd" clip-rule="evenodd" d="M20.9014 3.09049C20.7727 2.96183 20.3612 2.9361 19.5896 3.24488C18.9723 3.5022 18.3036 3.91392 17.9435 4.27417L14.5227 7.69653L12.285 7.13042L12.5422 6.74444C12.5937 6.66725 12.6194 6.56432 12.568 6.51285L11.7449 5.6637C11.7192 5.63796 11.6678 5.63796 11.642 5.63796C11.5649 5.63796 11.5134 5.6637 11.462 5.71516L10.5103 6.66725L5.23767 5.30345C4.5175 5.04613 3.82305 5.17479 3.41153 5.5865L3.05144 5.94675L8.65847 8.82874L8.55559 9.08606C8.42699 9.42058 8.47843 9.5235 8.47843 9.54924L8.58131 9.65216C8.63275 9.6779 8.88996 9.6779 9.48152 9.39484L9.63585 9.31765L11.7706 10.4241L10.819 11.3762C10.7161 11.4791 10.2017 11.9938 9.84161 12.354C9.63584 12.5599 9.4558 12.7657 9.27576 12.9973L7.16669 15.6992L3.51441 14.5927L3 15.1074L8.88996 21L9.40436 20.4854L8.29839 16.8057L10.999 14.6956C11.2305 14.5155 11.4363 14.3354 11.642 14.1295C12.0021 13.7693 12.5422 13.2547 12.6194 13.1517L13.5711 12.1996L14.5741 14.181L14.497 14.3354C14.1883 14.9272 14.1883 15.2103 14.2141 15.2618L14.3169 15.3647C14.3169 15.3647 14.3427 15.3647 14.3684 15.3647C14.4455 15.3647 14.5741 15.3389 14.8056 15.2618L15.0886 15.1588L18.0464 20.9228L18.4065 20.5626C18.818 20.1508 18.9466 19.4561 18.6894 18.7613L17.3005 13.3576L18.2007 12.4827C18.2522 12.4312 18.2779 12.354 18.3036 12.3026C18.3036 12.2768 18.3036 12.2254 18.2779 12.1996L17.4548 11.3762C17.4034 11.3247 17.3005 11.3247 17.2233 11.3762L16.8375 11.5821L16.2974 9.44631L19.7182 6.04968C20.0783 5.68943 20.5155 5.0204 20.747 4.40283C21.0814 3.63086 21.03 3.21915 20.9014 3.09049Z" fill="#063B9E"/>
</svg>
