<svg width="24" height="24" viewBox="0 0 24 24" fill="none" xmlns="http://www.w3.org/2000/svg">
<path d="M15.3408 10.6982L16.1272 10.4875C16.341 10.4302 16.5359 10.3222 16.6905 10.175L16.839 10.0337L16.7768 9.80162C16.9526 9.72767 17.1018 9.63745 17.2129 9.53756L19.7764 8.85066C19.7846 8.84846 20.5864 8.62944 20.9774 8.1486C21.2123 7.86064 21.2231 7.60899 21.1912 7.44835C21.121 7.09805 20.8005 6.9153 20.7492 6.88787C20.662 6.83622 20.4751 6.73873 20.0215 6.50408C18.6906 5.81584 17.6704 6.00405 17.3515 6.08951L7.72882 8.6679C7.58737 8.70162 7.45181 8.70026 7.39053 8.664C7.15694 8.52774 4.18636 6.84742 4.05989 6.77595L3.92615 6.70015L2.12305 7.18328L4.29958 9.73015L3.57734 9.961L3.89036 11.1292L8.03025 11.5047C8.08128 11.5113 9.30848 11.6555 12.2138 10.8771L12.4411 10.8162C12.6693 10.8639 12.965 10.8457 13.2775 10.7619L13.6812 10.6538L13.7145 10.7778L13.9692 10.7933C14.4427 10.8216 15.0322 10.7809 15.3408 10.6982Z" fill="#063B9E"/>
<path d="M19.2171 9.92341C19.3264 10.3313 19.0843 10.7506 18.6764 10.8599C18.2685 10.9692 17.8493 10.7271 17.74 10.3192C17.6307 9.91131 17.8727 9.49203 18.2806 9.38273C18.6885 9.27344 19.1078 9.51551 19.2171 9.92341Z" fill="#063B9E"/>
<path d="M11.2907 12.8389C11.6986 12.7296 11.9406 12.3103 11.8313 11.9024C11.722 11.4945 11.3028 11.2525 10.8949 11.3617C10.487 11.471 10.2449 11.8903 10.3542 12.2982C10.4635 12.7061 10.8828 12.9482 11.2907 12.8389Z" fill="#063B9E"/>
<path d="M9.86179 12.4302C9.97109 12.8381 9.72902 13.2573 9.32112 13.3666C8.91321 13.4759 8.49394 13.2339 8.38464 12.826C8.27534 12.4181 8.51741 11.9988 8.92531 11.8895C9.33322 11.7802 9.7525 12.0223 9.86179 12.4302Z" fill="#063B9E"/>
<path d="M2.5 16.2002C2.22386 16.2002 2 16.424 2 16.7002C2 16.9763 2.22386 17.2002 2.5 17.2002H21.5C21.7761 17.2002 22 16.9763 22 16.7002C22 16.424 21.7761 16.2002 21.5 16.2002H2.5Z" fill="#063B9E"/>
</svg>
