<svg width="24" height="24" viewBox="0 0 24 24" fill="none" xmlns="http://www.w3.org/2000/svg">
<path d="M15.9039 13.1603L13.7826 15.2816L19.7788 21.2778L21.9001 19.1565L15.9039 13.1603Z" fill="#063B9E"/>
<path d="M17.4999 10.1097C19.4299 10.1097 20.9999 8.53971 20.9999 6.60971C20.9999 6.02971 20.8399 5.48971 20.5899 5.00971L17.8899 7.70971L16.3999 6.21971L19.0999 3.51971C18.6199 3.26971 18.0799 3.10971 17.4999 3.10971C15.5699 3.10971 13.9999 4.67971 13.9999 6.60971C13.9999 7.01971 14.0799 7.40971 14.2099 7.76971L12.3599 9.61971L10.5799 7.83971L11.2899 7.12971L9.87991 5.71971L11.9999 3.59971C10.8299 2.42971 8.92991 2.42971 7.75991 3.59971L4.21991 7.13971L5.62991 8.54971H2.80991L2.09991 9.25971L5.63991 12.7997L6.34991 12.0897V9.25971L7.75991 10.6697L8.46991 9.95971L10.2499 11.7397L2.83991 19.1497L4.95991 21.2697L16.3399 9.89971C16.6999 10.0297 17.0899 10.1097 17.4999 10.1097Z" fill="#063B9E"/>
</svg>
