<svg width="24" height="24" viewBox="0 0 24 24" fill="none" xmlns="http://www.w3.org/2000/svg">
<path d="M12 21C9.48333 21 7.35433 20.129 5.613 18.387C3.87167 16.645 3.00067 14.516 3 12C3 9.7 3.75 7.704 5.25 6.012C6.75 4.32 8.66667 3.33266 11 3.05C11.2167 3.01666 11.4083 3.046 11.575 3.138C11.7417 3.23 11.875 3.35066 11.975 3.5C12.075 3.64933 12.1293 3.82433 12.138 4.025C12.1467 4.22566 12.084 4.41733 11.95 4.6C11.6667 5.03333 11.454 5.49166 11.312 5.975C11.17 6.45833 11.0993 6.96666 11.1 7.5C11.1 9 11.625 10.275 12.675 11.325C13.725 12.375 15 12.9 16.5 12.9C17.0167 12.9 17.5293 12.825 18.038 12.675C18.5467 12.525 19.0007 12.3167 19.4 12.05C19.5833 11.9333 19.771 11.8793 19.963 11.888C20.155 11.8967 20.3257 11.9423 20.475 12.025C20.6417 12.1083 20.771 12.2333 20.863 12.4C20.955 12.5667 20.984 12.7667 20.95 13C20.7167 15.3 19.7377 17.2083 18.013 18.725C16.2883 20.2417 14.284 21 12 21Z" fill="#063B9E"/>
</svg>
