<svg width="24" height="24" viewBox="0 0 24 24" fill="none" xmlns="http://www.w3.org/2000/svg">
<path d="M14 12V19.88C14.04 20.18 13.94 20.5 13.71 20.71C13.6175 20.8027 13.5076 20.8763 13.3866 20.9264C13.2656 20.9766 13.136 21.0024 13.005 21.0024C12.874 21.0024 12.7443 20.9766 12.6234 20.9264C12.5024 20.8763 12.3925 20.8027 12.3 20.71L10.29 18.7C10.181 18.5933 10.0981 18.4629 10.0478 18.319C9.9975 18.175 9.98114 18.0213 9.99999 17.87V12H9.96999L4.20999 4.62C4.0476 4.41153 3.97433 4.14726 4.00618 3.88493C4.03804 3.6226 4.17243 3.38355 4.37999 3.22C4.56999 3.08 4.77999 3 4.99999 3H19C19.22 3 19.43 3.08 19.62 3.22C19.8276 3.38355 19.962 3.6226 19.9938 3.88493C20.0257 4.14726 19.9524 4.41153 19.79 4.62L14.03 12H14Z" fill="#063B9E"/>
</svg>
