<svg xmlns="http://www.w3.org/2000/svg" viewBox="0 0 24 24" fill="currentColor"><path d="M12 6c-1.1 0-2-.9-2-2s.9-2 2-2 2 .9 2 2-.9 2-2 2zm5-4c.56 0 1 .45 1 1s-.45 1-1 1-1-.45-1-1 .45-1 1-1zm0 5.5c0 .83-.67 1.5-1.5 1.5S14 8.33 14 7.5 14.67 6 15.5 6s1.5.67 1.5 1.5zM5.5 7c.56 0 1 .45 1 1s-.45 1-1 1-1-.45-1-1 .45-1 1-1zm.5 4h-.5c-.28 0-.5.22-.5.5s.22.5.5.5H6c.28 0 .5-.22.5-.5s-.22-.5-.5-.5zm3 .5c0 .28-.22.5-.5.5H8c-.28 0-.5-.22-.5-.5s.22-.5.5-.5h.5c.28 0 .5.22.5.5zM8 14c-.55 0-1 .45-1 1v7h2v-4h2v4h2v-4.03C13 16.21 11.21 14 8 14z"/></svg>
