<svg width="24" height="24" viewBox="0 0 24 24" fill="none" xmlns="http://www.w3.org/2000/svg">
<path fill-rule="evenodd" clip-rule="evenodd" d="M4.47 19.5075H19.53C21.07 19.5075 22.03 17.8375 21.26 16.5075L13.73 3.4975C12.96 2.1675 11.04 2.1675 10.27 3.4975L2.74 16.5075C1.97 17.8375 2.93 19.5075 4.47 19.5075ZM12.878 15.6364C12.878 16.1384 12.471 16.5455 11.969 16.5455C11.467 16.5455 11.06 16.1384 11.06 15.6364C11.06 15.1343 11.467 14.7273 11.969 14.7273C12.471 14.7273 12.878 15.1343 12.878 15.6364ZM12.878 12C12.878 12.5021 12.471 12.9091 11.969 12.9091C11.467 12.9091 11.06 12.5021 11.06 12V10.1818C11.06 9.67974 11.467 9.27273 11.969 9.27273C12.471 9.27273 12.878 9.67974 12.878 10.1818V12Z" fill="#063B9E"/>
</svg>
